<?xml version="1.0" encoding="utf-8"?>
<!DOCTYPE svg PUBLIC "-//W3C//DTD SVG 1.1//EN" "http://www.w3.org/Graphics/SVG/1.1/DTD/svg11.dtd">
<svg version="1.1" id="Layer_1" xmlns="http://www.w3.org/2000/svg" xmlns:xlink="http://www.w3.org/1999/xlink" x="0px" y="0px"
	 width="100%" height="100%" viewBox="0 0 150 150" enable-background="new 0 0 150 150" xml:space="preserve">
<rect fill="#E0E0E0" width="150" height="150"/>
<g>
	<g>
		<path fill="#B0B0B0" d="M39.714,131.672v-9.027H36.48v-1.647h8.339v1.647h-3.232v9.027H39.714z"/>
		<path fill="#B0B0B0" d="M51.906,131.672v-4.865c0-1.201-0.624-1.568-1.568-1.568c-0.849,0-1.585,0.513-1.984,1.039v5.396h-1.681
			v-10.676h1.681v4.001c0.512-0.607,1.521-1.249,2.736-1.249c1.665,0,2.497,0.865,2.497,2.449v5.475L51.906,131.672L51.906,131.672z
			"/>
		<path fill="#B0B0B0" d="M61.298,131.672v-1.023c-0.561,0.623-1.521,1.216-2.737,1.216c-1.665,0-2.48-0.863-2.48-2.448v-5.475
			h1.681v4.865c0,1.201,0.607,1.568,1.552,1.568c0.849,0,1.585-0.48,1.985-1.008v-5.426h1.681v7.729L61.298,131.672L61.298,131.672z
			"/>
		<path fill="#B0B0B0" d="M74.948,131.672v-5.042c0-0.833-0.368-1.394-1.265-1.394c-0.752,0-1.457,0.529-1.793,1.024v5.41h-1.68
			v-5.042c0-0.833-0.368-1.393-1.28-1.393c-0.736,0-1.425,0.527-1.776,1.039v5.396h-1.681v-7.729h1.681v1.056
			c0.319-0.479,1.344-1.249,2.513-1.249c1.152,0,1.856,0.576,2.112,1.426c0.448-0.705,1.473-1.426,2.626-1.426
			c1.424,0,2.225,0.77,2.225,2.338v5.586H74.948z"/>
		<path fill="#B0B0B0" d="M79.121,131.672v-10.676h1.681v4.018c0.607-0.815,1.505-1.266,2.48-1.266c1.985,0,3.426,1.568,3.426,4.066
			c0,2.545-1.457,4.049-3.426,4.049c-1.009,0-1.89-0.479-2.48-1.248v1.057H79.121z M82.786,130.375c1.345,0,2.192-1.057,2.192-2.561
			c0-1.506-0.849-2.578-2.192-2.578c-0.784,0-1.616,0.479-1.984,1.058v3.058C81.17,129.928,82.002,130.375,82.786,130.375z"/>
		<path fill="#B0B0B0" d="M93.954,131.672v-4.834c0-1.201-0.608-1.602-1.554-1.602c-0.863,0-1.601,0.514-1.983,1.041v5.395h-1.681
			v-7.73h1.681v1.057c0.513-0.607,1.504-1.249,2.722-1.249c1.664,0,2.496,0.896,2.496,2.481v5.441H93.954z"/>
		<path fill="#B0B0B0" d="M102.85,131.672v-0.832c-0.576,0.656-1.473,1.023-2.496,1.023c-1.266,0-2.689-0.848-2.689-2.562
			c0-1.776,1.425-2.513,2.689-2.513c1.039,0,1.937,0.336,2.496,0.992v-1.152c0-0.896-0.736-1.439-1.809-1.439
			c-0.864,0-1.617,0.319-2.289,0.977l-0.688-1.169c0.896-0.849,2.017-1.249,3.248-1.249c1.713,0,3.219,0.721,3.219,2.802v5.122
			H102.85z M102.85,129.911v-1.169c-0.385-0.527-1.104-0.801-1.841-0.801c-0.944,0-1.647,0.545-1.647,1.394
			c0,0.833,0.703,1.376,1.647,1.376C101.745,130.711,102.465,130.439,102.85,129.911z"/>
		<path fill="#B0B0B0" d="M106.814,121.04c0-0.576,0.48-1.04,1.041-1.04c0.576,0,1.041,0.464,1.041,1.04s-0.465,1.04-1.041,1.04
			C107.296,122.08,106.814,121.616,106.814,121.04z M107.023,131.672v-7.73h1.682v7.73H107.023z"/>
		<path fill="#B0B0B0" d="M111.199,131.672v-10.676h1.681v10.676H111.199z"/>
	</g>
</g>
<path fill="#C2C2C2" d="M124,22H26c-1.65,0-3,1.35-3,3v79c0,1.65,1.35,3,3,3h98c1.65,0,3-1.35,3-3V25C127,23.35,125.65,22,124,22z
	 M37,47.475c0-6.339,5.139-11.477,11.477-11.477s11.477,5.138,11.477,11.477c0,6.338-5.139,11.477-11.477,11.477
	S37,53.813,37,47.475z M113,88c0,1.658-1.342,3-3,3H45l43.223-42.822L113,72.728V88z"/>
</svg>
